<?xml version="1.0" encoding="utf-8"?>
<svg version="1.1" xmlns="http://www.w3.org/2000/svg" width="400" height="400" viewBox="0 0 400 400">
<rect style="fill:#fff;stroke:#006CBA;stroke-width:44.5;stroke-linejoin:round" rx="89" ry="89" x="22.25" y="22.25" width="355.5" height="355.5"/>
<path d="M122.566,146.785 H78.005 V122.288 H198.386 V146.785 H153.769 V277.879 H122.566"/>
<path d="M301.771,150.792c-9.775-4.234-20.688-6.735-31.603-6.735c-10.687,0-24.552,4.718-24.552,21.712
	c0,26.969,68.259,15.601,68.259,67.72c0,34.156-26.995,47.115-58.428,47.115c-16.937,0-24.554-2.271-39.898-6.078l2.843-28.021
	c10.685,5.799,23.019,9.549,35.293,9.549c11.824,0,27.51-6.023,27.51-20.121c0-29.608-68.146-17.334-68.146-68.828
	c0-34.813,26.997-47.487,54.508-47.487c13.299,0,25.689,1.733,37.229,5.569L301.771,150.792z"/>
</svg>